# xmcd
#
# Track frame offsets:
#	150
#	14734
#	28796
#	38452
#
# Disc length: 695 seconds
#
# Revision: 2
# Processed by: cddbd v1.5.2PL0 Copyright (c) Steve Scherf et al.
# Submitted via: EasyCDDAExtractor 11.9.9.666
#
DISCID=2802b504
DTITLE=Lánela - For example
DYEAR=2009
DGENRE=Blues
TTITLE0=Suddenly
TTITLE1=Suicide boy
TTITLE2=Masochistic
TTITLE3=My bleeding man
EXTD=
EXTT0=
EXTT1=
EXTT2=
EXTT3=
PLAYORDER=
